HIERARCHY
ROOT hip
{
  OFFSET 5.70873 43.8894 -1.52928
  CHANNELS 6 Xposition Yposition Zposition Zrotation Xrotation Yrotation
  JOINT abdomen
  {
    OFFSET 0 5.99393 0.287273
    CHANNELS 6 Xposition Yposition Zposition Zrotation Xrotation Yrotation
    JOINT chest
    {
      OFFSET 0 6.65865 -0.856112
      CHANNELS 6 Xposition Yposition Zposition Zrotation Xrotation Yrotation
      JOINT neck
      {
        OFFSET 0 8.65624 -1.42685
        CHANNELS 6 Xposition Yposition Zposition Zrotation Xrotation Yrotation
        JOINT head
        {
          OFFSET 0 3.80999 -0.190247
          CHANNELS 6 Xposition Yposition Zposition Zrotation Xrotation Yrotation
          End Site
          {
            OFFSET 0 0 0
          }
        }
      }
      JOINT rCollar
      {
        OFFSET -1.4963 7.5744 -1.52136
        CHANNELS 6 Xposition Yposition Zposition Zrotation Xrotation Yrotation
        JOINT rShldr
        {
          OFFSET -5.47506 -0.905672 0.485692
          CHANNELS 6 Xposition Yposition Zposition Zrotation Xrotation Yrotation
          JOINT rForeArm
          {
            OFFSET -11.3069 -0.201091 0.618544
            CHANNELS 6 Xposition Yposition Zposition Zrotation Xrotation Yrotation
            JOINT rHand
            {
              OFFSET -9.61414 -0.254739 3.48553
              CHANNELS 6 Xposition Yposition Zposition Zrotation Xrotation Yrotation
              JOINT rThumb1
              {
                OFFSET 0.176263 -0.07068 1.26622
                CHANNELS 6 Xposition Yposition Zposition Zrotation Xrotation Yrotation
                JOINT rThumb2
                {
                  OFFSET -1.04683 -0.546484 1.82182
                  CHANNELS 6 Xposition Yposition Zposition Zrotation Xrotation Yrotation
                  JOINT rThumb3
                  {
                    OFFSET -0.993472 -0.621916 0.655506
                    CHANNELS 6 Xposition Yposition Zposition Zrotation Xrotation Yrotation
                    End Site
                    {
                      OFFSET -0.996134 -0.66263 0.644615
                    }
                  }
                }
              }
              JOINT rIndex1
              {
                OFFSET -2.64253 0.566363 2.4162
                CHANNELS 6 Xposition Yposition Zposition Zrotation Xrotation Yrotation
                JOINT rIndex2
                {
                  OFFSET -1.39394 -0.635138 0.899356
                  CHANNELS 6 Xposition Yposition Zposition Zrotation Xrotation Yrotation
                  JOINT rIndex3
                  {
                    OFFSET -0.622395 -0.856016 0.402182
                    CHANNELS 6 Xposition Yposition Zposition Zrotation Xrotation Yrotation
                    End Site
                    {
                      OFFSET -0.472476 -0.801802 0.34216
                    }
                  }
                }
              }
              JOINT rMid1
              {
                OFFSET -3.20814 0.514427 1.52547
                CHANNELS 6 Xposition Yposition Zposition Zrotation Xrotation Yrotation
                JOINT rMid2
                {
                  OFFSET -1.56545 -0.497974 0.68919
                  CHANNELS 6 Xposition Yposition Zposition Zrotation Xrotation Yrotation
                  JOINT rMid3
                  {
                    OFFSET -0.679943 -1.17582 0.444246
                    CHANNELS 6 Xposition Yposition Zposition Zrotation Xrotation Yrotation
                    End Site
                    {
                      OFFSET -0.343874 -0.941341 0.267611
                    }
                  }
                }
              }
              JOINT rRing1
              {
                OFFSET -3.47877 0.200518 0.597719
                CHANNELS 6 Xposition Yposition Zposition Zrotation Xrotation Yrotation
                JOINT rRing2
                {
                  OFFSET -1.28208 -0.53155 0.44672
                  CHANNELS 6 Xposition Yposition Zposition Zrotation Xrotation Yrotation
                  JOINT rRing3
                  {
                    OFFSET -0.710288 -0.970167 0.4032
                    CHANNELS 6 Xposition Yposition Zposition Zrotation Xrotation Yrotation
                    End Site
                    {
                      OFFSET -0.403228 -0.950952 0.378354
                    }
                  }
                }
              }
              JOINT rPinky1
              {
                OFFSET -3.42483 -0.278904 -0.240415
                CHANNELS 6 Xposition Yposition Zposition Zrotation Xrotation Yrotation
                JOINT rPinky2
                {
                  OFFSET -1.05787 -0.635999 0.156459
                  CHANNELS 6 Xposition Yposition Zposition Zrotation Xrotation Yrotation
                  JOINT rPinky3
                  {
                    OFFSET -0.42815 -0.754232 0.287187
                    CHANNELS 6 Xposition Yposition Zposition Zrotation Xrotation Yrotation
                    End Site
                    {
                      OFFSET -0.235717 -0.725605 0.279416
                    }
                  }
                }
              }
            }
          }
        }
      }
      JOINT lCollar
      {
        OFFSET 1.4963 7.5744 -1.52136
        CHANNELS 6 Xposition Yposition Zposition Zrotation Xrotation Yrotation
        JOINT lShldr
        {
          OFFSET 5.47506 -0.905672 0.485692
          CHANNELS 6 Xposition Yposition Zposition Zrotation Xrotation Yrotation
          JOINT lForeArm
          {
            OFFSET 11.3069 -0.201091 0.618544
            CHANNELS 6 Xposition Yposition Zposition Zrotation Xrotation Yrotation
            JOINT lHand
            {
              OFFSET 9.61414 -0.254739 3.48553
              CHANNELS 6 Xposition Yposition Zposition Zrotation Xrotation Yrotation
              JOINT lThumb1
              {
                OFFSET -0.176263 -0.07068 1.26622
                CHANNELS 6 Xposition Yposition Zposition Zrotation Xrotation Yrotation
                JOINT lThumb2
                {
                  OFFSET 1.04683 -0.546484 1.82182
                  CHANNELS 6 Xposition Yposition Zposition Zrotation Xrotation Yrotation
                  JOINT lThumb3
                  {
                    OFFSET 0.993472 -0.621916 0.655506
                    CHANNELS 6 Xposition Yposition Zposition Zrotation Xrotation Yrotation
                    End Site
                    {
                      OFFSET 0.996134 -0.66263 0.644615
                    }
                  }
                }
              }
              JOINT lIndex1
              {
                OFFSET 2.64253 0.566363 2.4162
                CHANNELS 6 Xposition Yposition Zposition Zrotation Xrotation Yrotation
                JOINT lIndex2
                {
                  OFFSET 1.39394 -0.635138 0.899356
                  CHANNELS 6 Xposition Yposition Zposition Zrotation Xrotation Yrotation
                  JOINT lIndex3
                  {
                    OFFSET 0.622395 -0.856016 0.402182
                    CHANNELS 6 Xposition Yposition Zposition Zrotation Xrotation Yrotation
                    End Site
                    {
                      OFFSET 0.472476 -0.801802 0.34216
                    }
                  }
                }
              }
              JOINT lMid1
              {
                OFFSET 3.20814 0.514427 1.52547
                CHANNELS 6 Xposition Yposition Zposition Zrotation Xrotation Yrotation
                JOINT lMid2
                {
                  OFFSET 1.56545 -0.497974 0.68919
                  CHANNELS 6 Xposition Yposition Zposition Zrotation Xrotation Yrotation
                  JOINT lMid3
                  {
                    OFFSET 0.679943 -1.17582 0.444246
                    CHANNELS 6 Xposition Yposition Zposition Zrotation Xrotation Yrotation
                    End Site
                    {
                      OFFSET 0.343874 -0.941341 0.267611
                    }
                  }
                }
              }
              JOINT lRing1
              {
                OFFSET 3.47877 0.200518 0.597719
                CHANNELS 6 Xposition Yposition Zposition Zrotation Xrotation Yrotation
                JOINT lRing2
                {
                  OFFSET 1.28208 -0.53155 0.44672
                  CHANNELS 6 Xposition Yposition Zposition Zrotation Xrotation Yrotation
                  JOINT lRing3
                  {
                    OFFSET 0.710288 -0.970167 0.4032
                    CHANNELS 6 Xposition Yposition Zposition Zrotation Xrotation Yrotation
                    End Site
                    {
                      OFFSET 0.403228 -0.950952 0.378354
                    }
                  }
                }
              }
              JOINT lPinky1
              {
                OFFSET 3.42483 -0.278904 -0.240415
                CHANNELS 6 Xposition Yposition Zposition Zrotation Xrotation Yrotation
                JOINT lPinky2
                {
                  OFFSET 1.05787 -0.635999 0.156459
                  CHANNELS 6 Xposition Yposition Zposition Zrotation Xrotation Yrotation
                  JOINT lPinky3
                  {
                    OFFSET 0.42815 -0.754232 0.287187
                    CHANNELS 6 Xposition Yposition Zposition Zrotation Xrotation Yrotation
                    End Site
                    {
                      OFFSET 0.235717 -0.725605 0.279416
                    }
                  }
                }
              }
            }
          }
        }
      }
    }
  }
  JOINT rThigh
  {
    OFFSET -4.17848 -1.02486 0.046356
    CHANNELS 6 Xposition Yposition Zposition Zrotation Xrotation Yrotation
    JOINT rShin
    {
      OFFSET 1.27155 -17.465 -0.237699
      CHANNELS 6 Xposition Yposition Zposition Zrotation Xrotation Yrotation
      JOINT rFoot
      {
        OFFSET 0.529163 -17.3815 -1.19582
        CHANNELS 6 Xposition Yposition Zposition Zrotation Xrotation Yrotation
        JOINT rToe
        {
          OFFSET -0.711591 -4.4863 4.0596
          CHANNELS 6 Xposition Yposition Zposition Zrotation Xrotation Yrotation
          End Site
          {
            OFFSET -0.869915 -1.10655 1.99006
          }
        }
      }
    }
  }
  JOINT lThigh
  {
    OFFSET 4.17848 -1.02486 0.046356
    CHANNELS 6 Xposition Yposition Zposition Zrotation Xrotation Yrotation
    JOINT lShin
    {
      OFFSET -1.27155 -17.465 -0.237699
      CHANNELS 6 Xposition Yposition Zposition Zrotation Xrotation Yrotation
      JOINT lFoot
      {
        OFFSET -0.529163 -17.3815 -1.19582
        CHANNELS 6 Xposition Yposition Zposition Zrotation Xrotation Yrotation
        JOINT lToe
        {
          OFFSET 0.711591 -4.4863 4.0596
          CHANNELS 6 Xposition Yposition Zposition Zrotation Xrotation Yrotation
          End Site
          {
            OFFSET 0.869915 -1.10655 1.99006
          }
        }
      }
    }
  }
}
MOTION
Frames:	4
Frame Time:	0.0333333
-10.2776 7.46759 19.1951 24.6681 -43.3752 112.981 0 5.99393 0.287273 7.06511 -1.69094 -0.679249 0 6.65865 -0.856112 14.1193 -3.45252 -1.14597 1.77636e-015 8.65624 -1.42685 -1.96083 17.7026 3.53332 1.77636e-015 3.80999 -0.190247 22.24 -3.033 11.8085 -1.4963 7.5744 -1.52136 -21.3273 -0.030215 -5.88013 -5.47506 -0.905672 0.485692 18.6161 -37.4918 56.2325 -11.3069 -0.201091 0.618544 5.80666 -16.3284 49.3106 -9.61414 -0.254739 3.48553 -3.6673 -10.9727 12.0429 0.176263 -0.07068 1.26622 0.0207817 17.8341 14.718 -1.04683 -0.546484 1.82182 4.30662 -3.68486 11.8249 -0.993472 -0.621916 0.655506 1.93757 -1.85075 5.54659 -2.64253 0.566363 2.4162 -4.36085 1.05152 1.45458 -1.39394 -0.635138 0.899356 6.53925 1.67934 -1.05718 -0.622395 -0.856016 0.402182 11.2847 2.81175 -1.93734 -3.20814 0.514427 1.52547 -5.39829 0.336745 0.69366 -1.56545 -0.497974 0.68919 11.7639 3.39905 -2.02111 -0.679943 -1.17582 0.444246 -7.52862 -2.382 0.918739 -3.47877 0.200518 0.597719 -5.15629 -1.61484 -2.68913 -1.28208 -0.53155 0.44672 3.47375 1.17974 -0.669356 -0.710288 -0.970167 0.4032 -5.60929 -1.99366 0.930663 -3.42483 -0.278904 -0.240415 -6.34283 -3.08606 -9.45075 -1.05787 -0.635999 0.156459 -2.84468 -1.07975 0.454191 -0.42815 -0.754232 0.287187 -7.36082 -2.84152 1.06527 1.4963 7.5744 -1.52136 -2.66942 -1.71332 -17.7419 5.47506 -0.905672 0.485692 -56.1856 -0.702882 -18.1822 11.3069 -0.201091 0.618544 -53.9912 29.8986 -111.686 9.61414 -0.254739 3.48553 -4.55102 -13.2253 -72.31 -0.176263 -0.07068 1.26622 -10.446 9.21413 -5.41017 1.04683 -0.546484 1.82182 -7.76352 -1.33436 -13.6002 0.993472 -0.621916 0.655506 -7.52236 -1.3269 -13.2052 2.64253 0.566363 2.4162 11.3461 -1.82849 -7.59199 1.39394 -0.635138 0.899356 9.28653 -3.43493 -3.48309 0.622395 -0.856016 0.402182 4.13642 -1.45053 -1.61037 3.20814 0.514427 1.52547 11.9188 -1.62348 -4.21857 1.56545 -0.497974 0.68919 5.23686 -2.10037 -2.02819 0.679943 -1.17582 0.444246 16.2829 -7.18078 -5.71065 3.47877 0.200518 0.597719 14.2442 -4.46914 -1.85265 1.28208 -0.53155 0.44672 5.33299 -2.36998 -2.34769 0.710288 -0.970167 0.4032 16.0078 -7.84388 -6.44765 3.42483 -0.278904 -0.240415 9.87613 -3.48161 6.72223 1.05787 -0.635999 0.156459 13.5825 -6.97484 -5.40773 0.42815 -0.754232 0.287187 15.6851 -8.18619 -6.11058 -4.17848 -1.02486 0.046356 -36.9006 -0.418307 10.1605 1.27155 -17.465 -0.237699 7.88052 37.1378 -2.15961 0.529163 -17.3815 -1.19582 15.832 21.2165 -7.46116 -0.711591 -4.4863 4.0596 1.86323 13.0869 -0.566412 4.17848 -1.02486 0.046356 -18.8648 -88.5844 13.5746 -1.27155 -17.465 -0.237699 9.0649 73.7468 -11.078 -0.529163 -17.3815 -1.19582 1.13117 12.7452 -9.47217 0.711591 -4.4863 4.0596 -0.126155 1.03338 -0.0509062 
-10.4314 7.38715 19.3033 23.548 -43.6632 109.182 -3.55271e-015 5.99393 0.287273 6.72256 -1.62614 -0.931869 0 6.65865 -0.856112 13.4264 -3.35002 -1.66791 1.77636e-015 8.65624 -1.42685 -1.78673 18.6491 5.10308 0 3.80999 -0.190247 22.3713 -2.95341 12.66 -1.4963 7.5744 -1.52136 -21.2266 -0.0464577 -4.94661 -5.47506 -0.905672 0.485692 17.8599 -38.0942 55.1794 -11.3069 -0.201091 0.618544 6.75841 -17.9578 51.3863 -9.61414 -0.254739 3.48553 -7.22805 -8.8737 10.678 0.176263 -0.07068 1.26622 0.823025 17.1374 14.1642 -1.04683 -0.546484 1.82182 4.34256 -3.70958 11.9169 -0.993472 -0.621916 0.655506 2.19862 -2.07402 6.26198 -2.64253 0.566363 2.4162 -4.96922 0.87297 1.89272 -1.39394 -0.635138 0.899356 5.25839 1.36077 -0.835505 -0.622395 -0.856016 0.402182 10.1071 2.53811 -1.7106 -3.20814 0.514427 1.52547 -5.83336 0.310854 0.78133 -1.56545 -0.497974 0.68919 10.4002 3.02935 -1.75275 -0.679943 -1.17582 0.444246 -8.29556 -2.63146 0.99477 -3.47877 0.200518 0.597719 -5.82177 -1.65128 -2.63025 -1.28208 -0.53155 0.44672 2.87064 0.978179 -0.548298 -0.710288 -0.970167 0.4032 -6.56903 -2.34447 1.07054 -3.42483 -0.278904 -0.240415 -6.31737 -2.92147 -9.55019 -1.05787 -0.635999 0.156459 -3.81522 -1.45377 0.597041 -0.42815 -0.754232 0.287187 -8.11348 -3.1401 1.15378 1.4963 7.5744 -1.52136 -2.33135 -1.72584 -17.9047 5.47506 -0.905672 0.485692 -54.6138 -2.41625 -21.4011 11.3069 -0.201091 0.618544 -53.6395 28.77 -115.056 9.61414 -0.254739 3.48553 -1.17167 -7.90189 -73.533 -0.176263 -0.07068 1.26622 -10.8254 10.1457 -6.63201 1.04683 -0.546484 1.82182 -8.13849 -1.35147 -14.2502 0.993472 -0.621916 0.655506 -8.17039 -1.3525 -14.3059 2.64253 0.566363 2.4162 12.8798 -2.55218 -8.79098 1.39394 -0.635138 0.899356 10.4283 -3.89987 -3.87667 0.622395 -0.856016 0.402182 5.10727 -1.80973 -1.97507 3.20814 0.514427 1.52547 13.1962 -2.23722 -4.7123 1.56545 -0.497974 0.68919 6.37112 -2.58297 -2.44531 0.679943 -1.17582 0.444246 17.8277 -7.95299 -6.15251 3.47877 0.200518 0.597719 15.6251 -5.04524 -2.04305 1.28208 -0.53155 0.44672 6.43034 -2.88934 -2.80799 0.710288 -0.970167 0.4032 17.4935 -8.67466 -6.94518 3.42483 -0.278904 -0.240415 11.2254 -3.98834 7.00176 1.05787 -0.635999 0.156459 15.0321 -7.80654 -5.89692 0.42815 -0.754232 0.287187 17.1805 -9.05584 -6.58308 -4.17848 -1.02486 0.046356 -37.814 -2.64821 10.2348 1.27155 -17.465 -0.237699 7.2499 35.5152 -1.65926 0.529163 -17.3815 -1.19582 16.1406 21.7578 -7.29068 -0.711591 -4.4863 4.0596 1.80385 12.6921 -0.542571 4.17848 -1.02486 0.046356 0.794335 -88.6269 32.6796 -1.27155 -17.465 -0.237699 8.78074 73.3258 -10.8213 -0.529163 -17.3815 -1.19582 0.339734 13.6932 -9.88104 0.711591 -4.4863 4.0596 -0.052615 0.430382 -0.0214774 
-10.5838 7.30209 19.4104 22.4196 -43.6712 105.401 0 5.99393 0.287273 6.29411 -1.55254 -1.16067 0 6.65865 -0.856112 12.5629 -3.22281 -2.14526 0 8.65624 -1.42685 -1.57199 19.4766 6.67652 0 3.80999 -0.190247 22.134 -2.72195 13.2244 -1.4963 7.5744 -1.52136 -21.1785 -0.0634471 -3.98425 -5.47506 -0.905672 0.485692 17.1191 -38.9819 54.4249 -11.3069 -0.201091 0.618544 7.81972 -19.8237 53.3086 -9.61414 -0.254739 3.48553 -11.2875 -5.64497 8.90013 0.176263 -0.07068 1.26622 1.58587 16.4667 13.6487 -1.04683 -0.546484 1.82182 4.37557 -3.73224 12.0013 -0.993472 -0.621916 0.655506 2.45436 -2.28734 6.95658 -2.64253 0.566363 2.4162 -5.55905 0.699109 2.31574 -1.39394 -0.635138 0.899356 4.01805 1.0473 -0.627513 -0.622395 -0.856016 0.402182 9.00174 2.27679 -1.50272 -3.20814 0.514427 1.52547 -6.24957 0.285871 0.863869 -1.56545 -0.497974 0.68919 9.08026 2.66496 -1.50118 -0.679943 -1.17582 0.444246 -9.06233 -2.88191 1.06747 -3.47877 0.200518 0.597719 -6.46676 -1.68757 -2.57572 -1.28208 -0.53155 0.44672 2.28643 0.781593 -0.432955 -0.710288 -0.970167 0.4032 -7.49885 -2.68676 1.20055 -3.42483 -0.278904 -0.240415 -6.29161 -2.75691 -9.6497 -1.05787 -0.635999 0.156459 -4.72648 -1.80739 0.725501 -0.42815 -0.754232 0.287187 -8.86589 -3.43979 1.23837 1.4963 7.5744 -1.52136 -2.0191 -1.73266 -18.0008 5.47506 -0.905672 0.485692 -53.0124 -4.62132 -24.4024 11.3069 -0.201091 0.618544 -52.7261 26.5901 -118.415 9.61414 -0.254739 3.48553 2.36642 -3.90932 -74.1644 -0.176263 -0.07068 1.26622 -10.8969 11.0587 -7.58298 1.04683 -0.546484 1.82182 -8.38009 -1.36027 -14.6688 0.993472 -0.621916 0.655506 -8.58061 -1.36594 -15.0167 2.64253 0.566363 2.4162 13.8689 -3.02682 -9.5579 1.39394 -0.635138 0.899356 11.1657 -4.20487 -4.1265 0.622395 -0.856016 0.402182 5.7343 -2.04538 -2.20783 3.20814 0.514427 1.52547 14.0142 -2.64436 -5.0365 1.56545 -0.497974 0.68919 7.10344 -2.8996 -2.71017 0.679943 -1.17582 0.444246 18.8256 -8.4588 -6.4276 3.47877 0.200518 0.597719 16.515 -5.43884 -2.14702 1.28208 -0.53155 0.44672 7.13846 -3.23003 -3.10062 0.710288 -0.970167 0.4032 18.4528 -9.21892 -7.25603 3.42483 -0.278904 -0.240415 12.1991 -4.42663 7.1888 1.05787 -0.635999 0.156459 15.9678 -8.35113 -6.20259 0.42815 -0.754232 0.287187 18.1132 -9.62157 -6.87208 -4.17848 -1.02486 0.046356 -38.8468 -4.75785 9.78646 1.27155 -17.465 -0.237699 6.39958 33.5216 -1.06073 0.529163 -17.3815 -1.19582 15.7016 21.9198 -7.21315 -0.711591 -4.4863 4.0596 1.73024 12.2002 -0.513505 4.17848 -1.02486 0.046356 9.22602 -88.5893 40.5083 -1.27155 -17.465 -0.237699 8.55727 72.9587 -10.5587 -0.529163 -17.3815 -1.19582 0.366377 13.917 -9.98399 0.711591 -4.4863 4.0596 -0.0295545 0.24176 -0.0121287 
-10.7079 7.21617 19.5232 21.4106 -43.5515 101.798 0 5.99393 0.287273 5.85297 -1.58712 -1.27097 -3.55271e-015 6.65865 -0.856112 11.6765 -3.29528 -2.37474 0 8.65624 -1.42685 -1.34855 20.6906 7.69141 0 3.80999 -0.190247 21.51 -2.53676 13.5264 -1.4963 7.5744 -1.52136 -21.2942 -0.0777387 -3.25872 -5.47506 -0.905672 0.485692 15.8042 -39.9204 53.2746 -11.3069 -0.201091 0.618544 8.02785 -21.0129 54.2519 -9.61414 -0.254739 3.48553 -14.0316 -4.68264 7.81642 0.176263 -0.07068 1.26622 2.31664 15.8148 13.1634 -1.04683 -0.546484 1.82182 4.4086 -3.75482 12.0857 -0.993472 -0.621916 0.655506 2.70365 -2.49026 7.62794 -2.64253 0.566363 2.4162 -6.12854 0.530785 2.72245 -1.39394 -0.635138 0.899356 2.82213 0.740556 -0.433219 -0.622395 -0.856016 0.402182 7.89753 2.01153 -1.29999 -3.20814 0.514427 1.52547 -6.65135 0.261379 0.942596 -1.56545 -0.497974 0.68919 7.80822 2.3079 -1.2665 -0.679943 -1.17582 0.444246 -9.79074 -3.12076 1.13346 -3.47877 0.200518 0.597719 -7.08918 -1.72343 -2.52544 -1.28208 -0.53155 0.44672 1.72294 0.59073 -0.323553 -0.710288 -0.970167 0.4032 -8.39572 -3.01903 1.32074 -3.42483 -0.278904 -0.240415 -6.26558 -2.5924 -9.74928 -1.05787 -0.635999 0.156459 -5.63716 -2.163 0.848351 -0.42815 -0.754232 0.287187 -9.56647 -3.71989 1.31362 1.4963 7.5744 -1.52136 -1.53699 -1.72962 -17.9927 5.47506 -0.905672 0.485692 -51.526 -6.75012 -27.3028 11.3069 -0.201091 0.618544 -52.3649 23.8248 -120.972 9.61414 -0.254739 3.48553 5.67648 -0.207974 -74.2835 -0.176263 -0.07068 1.26622 -10.636 11.9346 -8.20464 1.04683 -0.546484 1.82182 -8.46561 -1.36295 -14.817 0.993472 -0.621916 0.655506 -8.72644 -1.36949 -15.2694 2.64253 0.566363 2.4162 14.2198 -3.19668 -9.82877 1.39394 -0.635138 0.899356 11.4275 -4.31401 -4.21433 0.622395 -0.856016 0.402182 5.95694 -2.12975 -2.28995 3.20814 0.514427 1.52547 14.293 -2.79856 -5.17187 1.56545 -0.497974 0.68919 7.36337 -3.01291 -2.80336 0.679943 -1.17582 0.444246 19.18 -8.6397 -6.52328 3.47877 0.200518 0.597719 16.8269 -5.60698 -2.16422 1.28208 -0.53155 0.44672 7.38973 -3.35198 -3.20359 0.710288 -0.970167 0.4032 18.7933 -9.41356 -7.36438 3.42483 -0.278904 -0.240415 12.7248 -4.77781 7.25787 1.05787 -0.635999 0.156459 16.2999 -8.54583 -6.30913 0.42815 -0.754232 0.287187 18.4515 -9.82446 -6.97373 -4.17848 -1.02486 0.046356 -39.7927 -6.5366 9.10971 1.27155 -17.465 -0.237699 5.37957 30.986 -0.389684 0.529163 -17.3815 -1.19582 15.0687 21.991 -7.12225 -0.711591 -4.4863 4.0596 1.73168 12.2099 -0.514054 4.17848 -1.02486 0.046356 9.98089 -88.618 40.5524 -1.27155 -17.465 -0.237699 8.43132 72.7077 -10.3468 -0.529163 -17.3815 -1.19582 0.929766 14.1765 -10.2813 0.711591 -4.4863 4.0596 -0.0492668 0.402922 -0.0201295 
